<svg width="24" height="26" viewBox="0 0 24 26" fill="none" xmlns="http://www.w3.org/2000/svg">
<path fill-rule="evenodd" clip-rule="evenodd" d="M10.8755 7.41345H0.5C0.223858 7.41345 0 7.63731 0 7.91345V12.634C0 12.9101 0.223857 13.134 0.5 13.134H10.8755V7.41345ZM12.3755 13.134H23.5C23.7761 13.134 24 12.9101 24 12.634V7.91345C24 7.63731 23.7761 7.41345 23.5 7.41345H12.3755V13.134Z" fill="#4B4B4B"/>
<path fill-rule="evenodd" clip-rule="evenodd" d="M10.9463 15.1714H2.59766C2.32151 15.1714 2.09766 15.3952 2.09766 15.6714V25.1625C2.09766 25.4386 2.32151 25.6625 2.59766 25.6625H10.9463V15.1714ZM12.4463 25.6625H21.5089C21.7851 25.6625 22.0089 25.4386 22.0089 25.1625V15.6714C22.0089 15.3952 21.7851 15.1714 21.5089 15.1714H12.4463V25.6625Z" fill="#4B4B4B"/>
<path d="M6.70718 1.07793C6.90217 1.0867 7.19926 1.1891 7.66215 1.51822C8.12367 1.84636 8.62355 2.31294 9.10808 2.8327C9.53933 3.29532 9.92327 3.76196 10.2165 4.13784C10.1657 4.15825 10.1125 4.17928 10.057 4.20075C9.55561 4.39463 8.88613 4.61715 8.1832 4.75136C7.45382 4.89063 6.80366 4.91104 6.32542 4.80052C6.10511 4.74961 5.98309 4.68484 5.91823 4.63948C5.8656 4.60267 5.7696 4.52331 5.66085 4.3266C5.15332 3.40851 5.03153 2.55166 5.23747 1.95321C5.43977 1.36533 5.9433 1.04358 6.70718 1.07793Z" fill="#4B4B4B" stroke="#4B4B4B" stroke-width="2"/>
<path d="M16.5347 1.07845C17.2985 1.04414 17.8021 1.36591 18.0043 1.9538C18.2102 2.55226 18.0884 3.40911 17.5808 4.32717C17.4721 4.52388 17.3761 4.60323 17.3234 4.64004C17.2586 4.6854 17.1365 4.75016 16.9162 4.80106C16.438 4.91155 15.7878 4.8911 15.0585 4.7518C14.3555 4.61755 13.6861 4.395 13.1847 4.20109C13.1292 4.17962 13.0759 4.15859 13.0252 4.13817C13.3184 3.76231 13.7024 3.29569 14.1337 2.8331C14.6182 2.31336 15.1181 1.84681 15.5797 1.51869C16.0426 1.1896 16.3397 1.08721 16.5347 1.07845Z" fill="#4B4B4B" stroke="#4B4B4B" stroke-width="2"/>
</svg>
