<svg width="70" height="70" viewBox="0 0 70 70" fill="none" xmlns="http://www.w3.org/2000/svg">
<path d="M70 35C70 54.33 54.33 70 35 70C15.67 70 0 54.33 0 35C0 15.67 15.67 0 35 0C54.33 0 70 15.67 70 35Z" fill="#E8EBFF"/>
<path fill-rule="evenodd" clip-rule="evenodd" d="M29.2556 27.5H40.7202C41.4085 27.5 42.0085 27.9684 42.1754 28.6362L42.8962 31.5192C42.7482 31.5026 42.5981 31.494 42.4463 31.494H27.5295C27.3777 31.494 27.2276 31.5026 27.0797 31.5192L27.8004 28.6362C27.9673 27.9684 28.5673 27.5 29.2556 27.5ZM23.961 33.6859L24.2771 32.4216H23.1132C22.4984 32.4216 22 31.9231 22 31.3083C22 30.6935 22.4984 30.1951 23.1133 30.1951H24.8338L25.3751 28.0299C25.8202 26.2492 27.4202 25 29.2556 25H40.7202C42.5557 25 44.1556 26.2492 44.6008 28.0299L45.1421 30.1951H46.8632C47.478 30.1951 47.9764 30.6935 47.9764 31.3083C47.9764 31.9231 47.478 32.4216 46.8632 32.4216H45.6987L46.0148 33.6859C46.1559 33.9645 46.2659 34.2631 46.34 34.5779L46.8191 36.614C47.1628 38.075 46.6616 39.5002 45.6741 40.4367C45.7222 40.6016 45.7479 40.7761 45.7479 40.9565V43.9252C45.7479 44.9499 44.9172 45.7806 43.8925 45.7806C42.8678 45.7806 42.0371 44.9499 42.0371 43.9252V41.5301H27.9354V43.9252C27.9354 44.9499 27.1047 45.7806 26.08 45.7806C25.0553 45.7806 24.2246 44.9499 24.2246 43.9252V40.9565C24.2246 40.7752 24.2506 40.5999 24.2991 40.4342C23.3134 39.4977 22.8133 38.0737 23.1567 36.614L23.6358 34.5779C23.7099 34.2631 23.8199 33.9645 23.961 33.6859Z" fill="#6881FF"/>
<path fill-rule="evenodd" clip-rule="evenodd" d="M29.1088 36.5185C26.0188 35.3311 23.4862 35.3311 23.4862 35.3311C23.4862 35.3311 23.0075 37.2438 23.4861 38.2997C24.542 40.6294 30.0358 38.2997 30.0358 38.2997C30.0358 38.2997 30.6774 37.1213 29.1088 36.5185ZM40.8697 36.5777C43.9597 35.3902 46.4923 35.3902 46.4923 35.3902C46.4923 35.3902 46.971 37.3029 46.4924 38.3589C45.4365 40.6885 39.9427 38.3589 39.9427 38.3589C39.9427 38.3589 39.3012 37.1805 40.8697 36.5777Z" fill="white"/>
</svg>
