<svg width="22" height="23" viewBox="0 0 22 23" fill="none" xmlns="http://www.w3.org/2000/svg">
<path fill-rule="evenodd" clip-rule="evenodd" d="M21.5006 0V10.3371H11.1303L15.3589 6.12202C14.3098 5.41336 13.0967 4.96729 11.8231 4.83204C10.1021 4.64928 8.36923 5.04448 6.8992 5.95497C5.42918 6.86545 4.30618 8.23909 3.70832 9.85803C3.11046 11.477 3.07196 13.2485 3.59892 14.8918C4.12588 16.535 5.18814 17.9558 6.61723 18.9289C8.04632 19.902 9.76043 20.3717 11.4877 20.2634C13.215 20.1551 14.8565 19.475 16.1521 18.3311C17.4476 17.1872 18.3229 15.6449 18.6391 13.9488L21.3231 14.4461C20.8958 16.7381 19.7129 18.8223 17.9622 20.3681C16.2116 21.914 13.9932 22.8329 11.6591 22.9792C9.32492 23.1256 7.00856 22.4909 5.07735 21.176C3.14615 19.861 1.71067 17.9409 0.998556 15.7204C0.286444 13.4998 0.338475 11.1057 1.1464 8.91798C1.95432 6.73022 3.47187 4.87395 5.4584 3.64357C7.44492 2.41319 9.78668 1.87914 12.1123 2.1261C14.0082 2.32743 15.8048 3.03841 17.3153 4.17193L21.5006 0Z" fill="white"/>
</svg>
