<svg width="71" height="79" viewBox="0 0 71 79" fill="none" xmlns="http://www.w3.org/2000/svg">
<path d="M70.5938 44C70.5938 63.33 54.9237 79 35.5938 79C16.2638 79 0.59375 63.33 0.59375 44C0.59375 24.67 16.2638 9 35.5938 9C54.9237 9 70.5938 24.67 70.5938 44Z" fill="#F0F0F0"/>
<path fill-rule="evenodd" clip-rule="evenodd" d="M29.8494 36.5H41.314C42.0023 36.5 42.6022 36.9684 42.7692 37.6362L43.4899 40.5192C43.3419 40.5026 43.1918 40.494 43.0401 40.494H28.1232C27.9715 40.494 27.8214 40.5026 27.6734 40.5192L28.3942 37.6362C28.5611 36.9684 29.1611 36.5 29.8494 36.5ZM24.5548 42.6859L24.8709 41.4216H23.707C23.0922 41.4216 22.5938 40.9231 22.5938 40.3083C22.5938 39.6935 23.0922 39.1951 23.707 39.1951H25.4275L25.9688 37.0299C26.414 35.2492 28.0139 34 29.8494 34H41.314C43.1494 34 44.7494 35.2492 45.1945 37.0299L45.7358 39.1951H47.4569C48.0718 39.1951 48.5702 39.6935 48.5702 40.3083C48.5702 40.9231 48.0718 41.4216 47.4569 41.4216H46.2924L46.6085 42.6859C46.7496 42.9645 46.8597 43.2631 46.9337 43.5779L47.4128 45.614C47.7566 47.075 47.2553 48.5002 46.2679 49.4367C46.3159 49.6016 46.3417 49.7761 46.3417 49.9565V52.9252C46.3417 53.9499 45.511 54.7806 44.4863 54.7806C43.4616 54.7806 42.6309 53.9499 42.6309 52.9252V50.5301H28.5292V52.9252C28.5292 53.9499 27.6985 54.7806 26.6738 54.7806C25.6491 54.7806 24.8184 53.9499 24.8184 52.9252V49.9565C24.8184 49.7752 24.8444 49.5999 24.8929 49.4342C23.9071 48.4977 23.407 47.0737 23.7505 45.614L24.2296 43.5779C24.3036 43.2631 24.4137 42.9645 24.5548 42.6859Z" fill="#AAAAAA"/>
<path fill-rule="evenodd" clip-rule="evenodd" d="M29.7025 45.5185C26.6126 44.3311 24.0799 44.3311 24.0799 44.3311C24.0799 44.3311 23.6013 46.2438 24.0799 47.2997C25.1358 49.6294 30.6295 47.2997 30.6295 47.2997C30.6295 47.2997 31.2711 46.1213 29.7025 45.5185ZM41.4635 45.5777C44.5535 44.3902 47.0861 44.3902 47.0861 44.3902C47.0861 44.3902 47.5647 46.3029 47.0861 47.3589C46.0302 49.6885 40.5365 47.3589 40.5365 47.3589C40.5365 47.3589 39.8949 46.1805 41.4635 45.5777Z" fill="#F0F0F0"/>
</svg>
