<svg width="25" height="29" viewBox="0 0 25 29" fill="none" xmlns="http://www.w3.org/2000/svg">
<path fill-rule="evenodd" clip-rule="evenodd" d="M11.375 8.34528H1C0.723858 8.34528 0.5 8.56913 0.5 8.84528V14.285C0.5 14.5612 0.723857 14.785 1 14.785H11.375V8.34528ZM12.875 14.785H24C24.2761 14.785 24.5 14.5612 24.5 14.285V8.84528C24.5 8.56913 24.2761 8.34528 24 8.34528H12.875V14.785Z" fill="url(#paint0_linear_26_928)"/>
<path fill-rule="evenodd" clip-rule="evenodd" d="M11.4501 17.0801H3.10498C2.82884 17.0801 2.60498 17.304 2.60498 17.5801V28.3902C2.60498 28.6663 2.82884 28.8902 3.10498 28.8902H11.4501V17.0801ZM12.9501 28.8902H22.0163C22.2924 28.8902 22.5163 28.6663 22.5163 28.3902V17.5801C22.5163 17.304 22.2924 17.0801 22.0163 17.0801H12.9501V28.8902Z" fill="url(#paint1_linear_26_928)"/>
<path d="M7.15839 1.1136C7.31335 1.12146 7.5945 1.21665 8.07737 1.60352C8.54974 1.98199 9.05955 2.51876 9.5506 3.11251C10.0335 3.6964 10.457 4.28493 10.7624 4.73243C10.7639 4.73468 10.7655 4.73692 10.767 4.73915C10.6994 4.77017 10.627 4.80266 10.5501 4.8361C10.0495 5.05397 9.38295 5.30312 8.68498 5.45309C7.95784 5.60933 7.32521 5.62826 6.87214 5.5103C6.66991 5.45764 6.55274 5.3904 6.47848 5.33189C6.40711 5.27564 6.28472 5.15629 6.15679 4.89529C5.62687 3.81415 5.5016 2.80662 5.71599 2.10687C5.92797 1.41496 6.44145 1.07723 7.15839 1.1136Z" stroke="url(#paint2_linear_26_928)" stroke-width="2"/>
<path d="M17.0712 1.11344C17.7882 1.0771 18.3016 1.41487 18.5136 2.10679C18.7279 2.80655 18.6026 3.81407 18.0726 4.89518C17.9447 5.15617 17.8223 5.27551 17.7509 5.33175C17.6767 5.39026 17.5595 5.4575 17.3573 5.51014C16.9042 5.62807 16.2716 5.6091 15.5444 5.45283C14.8465 5.30282 14.1799 5.05363 13.6793 4.83572C13.6025 4.80228 13.53 4.76978 13.4625 4.73877C13.464 4.73653 13.4655 4.73429 13.467 4.73205C13.7724 4.28456 14.196 3.69606 14.6789 3.1122C15.17 2.51848 15.6798 1.98174 16.1522 1.6033C16.6351 1.21646 16.9162 1.12129 17.0712 1.11344Z" stroke="url(#paint3_linear_26_928)" stroke-width="2"/>
<defs>
<linearGradient id="paint0_linear_26_928" x1="12.669" y1="7.25687" x2="12.6568" y2="14.7853" gradientUnits="userSpaceOnUse">
<stop stop-color="#FFCD70"/>
<stop offset="1" stop-color="#FE9D5F"/>
</linearGradient>
<linearGradient id="paint1_linear_26_928" x1="12.7008" y1="15.0841" x2="12.6515" y2="28.8905" gradientUnits="userSpaceOnUse">
<stop stop-color="#FFCD70"/>
<stop offset="1" stop-color="#FE9D5F"/>
</linearGradient>
<linearGradient id="paint2_linear_26_928" x1="6.42856" y1="-0.905208" x2="6.01747" y2="6.41401" gradientUnits="userSpaceOnUse">
<stop stop-color="#FFCD70"/>
<stop offset="1" stop-color="#FE9D5F"/>
</linearGradient>
<linearGradient id="paint3_linear_26_928" x1="17.8993" y1="-0.910307" x2="18.232" y2="6.44765" gradientUnits="userSpaceOnUse">
<stop stop-color="#FFCD70"/>
<stop offset="1" stop-color="#FE9D5F"/>
</linearGradient>
</defs>
</svg>
