<svg width="211" height="244" viewBox="0 0 211 244" fill="none" xmlns="http://www.w3.org/2000/svg">
<path d="M97.3064 23.0167C88.6445 14.2311 68.2985 2.88054 56.1068 5.77691C40.1463 9.56862 52.2521 26.2183 49.0451 46.1877C46.7817 60.2813 41.3322 62.232 31.6638 67.9915C5.60017 83.5188 11.1186 109.996 19.3129 122.538C27.5071 135.08 36.7846 162.138 36.7846 162.138C36.7846 162.138 50.7503 179.937 53.9612 183.931C77.2263 212.863 144.403 195.761 144.403 195.761L159.601 192.767C159.601 192.767 208.565 166.164 203.601 138.257C199.664 116.125 189.191 119.59 183.586 101.973C176.433 72.0724 178.165 66.8922 163.741 51.6241C147.629 37.7858 141.682 62.5229 131.8 55.4638C109.125 39.266 108.877 32.6995 97.3064 23.0167Z" fill="url(#paint0_linear_2597_4878)"/>
<path fill-rule="evenodd" clip-rule="evenodd" d="M78.8601 99.0323H66.8128V143.209H61.6497V120.069H53.0444V151.913H47.0196V143.048H38.4148V127.546H27.228V143.048H24.646V151.913H15.6616V199.858H207.559V151.913H199.334V147.743H186.95V124.773H177.039V100.231H166.306V132.067H160.609V117.856H148.562V139.818H141.679V151.913H87.6277V130.17H78.8601V99.0323Z" fill="url(#paint1_linear_2597_4878)"/>
<ellipse cx="112.3" cy="215.259" rx="91.6459" ry="28.7406" fill="url(#paint2_linear_2597_4878)"/>
<path d="M137.947 111.468L134.357 114.994L139.394 120.409C140.325 121.545 141.34 123.245 142.167 124.774C142.575 125.53 142.918 126.206 143.158 126.693C143.21 126.799 143.257 126.896 143.299 126.982L143.322 127.933C143.344 128.901 143.377 130.293 143.416 131.992C143.493 135.391 143.596 140.016 143.696 144.923C143.897 154.76 144.088 165.667 144.053 170.147C144.023 173.845 142.305 174.869 141.533 174.984C141.085 175.05 140.611 174.929 140.182 174.537C139.747 174.138 139.232 173.331 139.056 171.854C138.277 165.335 138.584 152.316 138.745 145.475C138.773 144.313 138.796 143.329 138.809 142.585C138.845 140.529 137.932 138.767 136.911 137.429C135.876 136.073 134.55 134.912 133.324 133.992C132.109 133.08 130.906 132.341 130.002 131.827V123.986C130.002 121.731 128.223 119.903 126.029 119.903H99.5535C97.3594 119.903 95.5807 121.731 95.5807 123.986V193.806H92.8921C91.7951 193.806 90.9058 194.72 90.9058 195.848V197.497C90.9058 198.624 91.7951 199.538 92.8921 199.538H132.695C133.792 199.538 134.681 198.624 134.681 197.497V195.848C134.681 194.72 133.792 193.806 132.695 193.806H130.002V137.824C130.133 137.918 130.264 138.015 130.395 138.113C131.43 138.889 132.358 139.734 133.003 140.578C133.661 141.441 133.851 142.075 133.844 142.494C133.832 143.168 133.81 144.088 133.783 145.192C133.622 151.921 133.296 165.522 134.127 172.476C134.42 174.931 135.374 176.97 136.88 178.348C138.392 179.733 140.332 180.318 142.244 180.034C146.192 179.448 148.976 175.542 149.018 170.188C149.055 165.616 148.862 154.62 148.661 144.816C148.561 139.903 148.458 135.274 148.38 131.873C148.341 130.172 148.309 128.778 148.286 127.81L148.25 126.299L148.25 126.298C148.25 126.297 148.25 126.297 145.768 126.361L148.25 126.298L148.237 125.755L148.01 125.265L145.768 126.361C148.01 125.265 148.01 125.265 148.01 125.265L148.009 125.262L148.001 125.244L147.978 125.196C147.959 125.154 147.931 125.095 147.895 125.019C147.823 124.869 147.719 124.653 147.588 124.387C147.326 123.856 146.954 123.12 146.508 122.296C145.639 120.688 144.409 118.587 143.129 117.045L143.084 116.99L137.947 111.468Z" fill="url(#paint3_linear_2597_4878)"/>
<rect x="100.746" y="126.038" width="24.0947" height="21.0314" rx="4" fill="white"/>
<path d="M57.0495 81.2553C52.5168 82.4687 47.2163 83.1663 41.5504 83.1663C24.8764 83.1663 11.3569 77.1262 11.3569 69.6755C11.3569 62.2248 24.8764 54.8157 41.5504 54.8157C56.9061 54.8157 69.5838 61.307 71.494 67.9363C75.2636 67.6091 86.6277 70.2194 83.6676 69.6555C88.0708 71.3621 94.5831 74.6821 92.807 78.2796C89.2549 81.8772 82.1505 82.6044 77.072 83.1663C69.1259 84.0455 60.9624 85.1034 57.0495 81.2553Z" fill="url(#paint4_linear_2597_4878)"/>
<circle cx="153.791" cy="78.4113" r="14.296" fill="white"/>
<circle cx="70.1806" cy="24.2597" r="1.73285" fill="white"/>
<circle cx="125.632" cy="59.7832" r="1.73285" fill="white"/>
<circle cx="59.7836" cy="91.8409" r="1.73285" fill="white"/>
<path d="M100.505 93.1406C100.505 94.3369 99.5357 95.3066 98.3394 95.3066C97.1431 95.3066 96.1733 94.3369 96.1733 93.1406C96.1733 91.9443 97.1431 90.9745 98.3394 90.9745C99.5357 90.9745 100.505 91.9443 100.505 93.1406Z" fill="white"/>
<circle cx="146.859" cy="76.6785" r="1.29964" fill="white"/>
<circle cx="113.069" cy="72.3463" r="1.29964" fill="white"/>
<circle cx="59.7836" cy="49.3861" r="1.73285" fill="white"/>
<circle cx="76.679" cy="43.7543" r="1.29964" fill="white"/>
<defs>
<linearGradient id="paint0_linear_2597_4878" x1="110.318" y1="-0.0125203" x2="92.6219" y2="157.126" gradientUnits="userSpaceOnUse">
<stop offset="0.208751" stop-color="#DBE1F1"/>
<stop offset="0.472973" stop-color="#E4EAFF"/>
<stop offset="0.844094" stop-color="#FAFAFA" stop-opacity="0"/>
</linearGradient>
<linearGradient id="paint1_linear_2597_4878" x1="109.337" y1="114.106" x2="109.337" y2="194.994" gradientUnits="userSpaceOnUse">
<stop stop-color="#C6CEEB"/>
<stop offset="0.526042" stop-color="#DBDFF8"/>
<stop offset="1" stop-color="#F9FAFC" stop-opacity="0"/>
</linearGradient>
<linearGradient id="paint2_linear_2597_4878" x1="112.231" y1="175.616" x2="112.231" y2="207.256" gradientUnits="userSpaceOnUse">
<stop offset="0.305707" stop-color="#EBEAEA"/>
<stop offset="1" stop-color="#F9FAFC" stop-opacity="0"/>
</linearGradient>
<linearGradient id="paint3_linear_2597_4878" x1="119.964" y1="111.468" x2="119.964" y2="199.538" gradientUnits="userSpaceOnUse">
<stop stop-color="#C4C4C4"/>
<stop offset="1" stop-color="#A8A8A8"/>
</linearGradient>
<linearGradient id="paint4_linear_2597_4878" x1="65.1397" y1="44.2037" x2="56.1094" y2="77.4189" gradientUnits="userSpaceOnUse">
<stop stop-color="#DFE2EB"/>
<stop offset="1" stop-color="#FAFAFA"/>
</linearGradient>
</defs>
</svg>
