<svg width="220" height="247" viewBox="0 0 220 247" fill="none" xmlns="http://www.w3.org/2000/svg">
<path d="M97.9738 22.5508C89.2525 13.943 68.767 2.82223 56.4916 5.65997C40.4217 9.37493 52.6105 25.6876 49.3815 45.2528C47.1026 59.061 41.6158 60.9722 31.881 66.6152C5.63862 81.8281 11.1949 107.769 19.4454 120.058C27.6958 132.346 37.0369 158.856 37.0369 158.856C37.0369 158.856 51.0984 176.295 54.3313 180.207C77.756 208.554 145.393 191.798 145.393 191.798L160.695 188.865C160.695 188.865 209.995 162.8 204.997 135.458C201.033 113.774 190.488 117.169 184.845 99.9085C177.643 70.6135 179.387 65.5381 164.864 50.5791C148.642 37.0209 142.653 61.2572 132.704 54.341C109.873 38.4712 109.623 32.0375 97.9738 22.5508Z" fill="url(#paint0_linear_2597_4525)"/>
<path fill-rule="evenodd" clip-rule="evenodd" d="M79.4001 97.0276H67.2701V140.31H62.0716V117.638H53.4073V148.838H47.3423V140.152H38.6781V124.964H27.4145V140.152H24.8153V148.838H15.7686V195.812H208.982V148.838H200.699V144.752H188.231V122.247H178.254V98.2016H167.447V129.394H161.711V115.471H149.581V136.988H142.649V148.838H88.2266V127.535H79.4001V97.0276Z" fill="url(#paint1_linear_2597_4525)"/>
<ellipse cx="113.069" cy="218.841" rx="92.2744" ry="28.1588" fill="url(#paint2_linear_2597_4525)"/>
<rect x="101.437" y="123.486" width="24.2599" height="20.6057" rx="4" fill="white"/>
<path d="M57.4424 79.6105C52.8786 80.7993 47.5418 81.4828 41.837 81.4828C25.0488 81.4828 11.4365 75.5649 11.4365 68.2651C11.4365 60.9652 25.0488 53.7061 41.837 53.7061C57.2981 53.7061 70.0627 60.066 71.986 66.561C75.7814 66.2405 87.2235 68.798 84.2431 68.2455C88.6765 69.9175 95.2335 73.1703 93.4452 76.695C89.8687 80.2198 82.7156 80.9323 77.6023 81.4828C69.6017 82.3442 61.3822 83.3807 57.4424 79.6105Z" fill="url(#paint3_linear_2597_4525)"/>
<path d="M97.9747 22.5508C89.2535 13.943 68.768 2.82223 56.4926 5.65997C40.4226 9.37493 52.6115 25.6876 49.3825 45.2528C47.1036 59.061 41.6167 60.9723 31.882 66.6152C5.6396 81.8281 11.1959 107.769 19.4463 120.058C27.6968 132.346 37.0379 158.856 37.0379 158.856C37.0379 158.856 51.0993 176.295 54.3323 180.207C77.757 208.554 145.394 191.798 145.394 191.798L160.696 188.865C160.696 188.865 209.996 162.8 204.998 135.458C201.034 113.774 190.489 117.169 184.846 99.9085C177.644 70.6135 179.388 65.5381 164.865 50.5791C148.643 37.0209 142.654 61.2572 132.705 54.341C109.874 38.4712 109.624 32.0375 97.9747 22.5508Z" fill="url(#paint4_linear_2597_4525)"/>
<path fill-rule="evenodd" clip-rule="evenodd" d="M67.2701 97.0269H79.4001V127.534H88.2256V133H99.001V148.837H101.001V142H112.001V148.837H126.001V133H138.001V148.837H142.65V136.987H149.58V115.47H161.71V129.393H167.447V98.2011H178.254V122.246H188.231V144.751H200.7V148.837H208.982V195.812H15.7686V148.837H24.8154V140.151H27.4146V124.963H38.6782V140.151H47.3425V148.837H53.4068V117.638H62.0711V140.309H67.2701V97.0269Z" fill="url(#paint5_linear_2597_4525)"/>
<path d="M57.4414 79.6103C52.8776 80.7991 47.5408 81.4825 41.836 81.4825C25.0478 81.4825 11.4355 75.5647 11.4355 68.2649C11.4355 60.965 25.0478 53.7058 41.836 53.7058C57.2971 53.7058 70.0617 60.0657 71.9851 66.5608C75.7805 66.2402 87.2226 68.7978 84.2421 68.2453C88.6755 69.9173 95.2325 73.1701 93.4442 76.6948C89.8677 80.2195 82.7147 80.932 77.6013 81.4825C69.6007 82.3439 61.3812 83.3804 57.4414 79.6103Z" fill="url(#paint6_linear_2597_4525)"/>
<path d="M108.309 111.177C109.259 109.449 111.741 109.449 112.691 111.177L147.106 173.796C148.022 175.462 146.816 177.5 144.915 177.5H76.0851C74.1839 177.5 72.9785 175.462 73.8942 173.796L108.309 111.177Z" fill="#FFDBDB" fill-opacity="0.39" stroke="url(#paint7_linear_2597_4525)" stroke-width="5"/>
<path d="M112.803 134.15L112.253 159.15H108.453L107.903 134.15H112.803ZM110.553 169.3C109.686 169.3 108.953 169 108.353 168.4C107.753 167.8 107.453 167.067 107.453 166.2C107.453 165.333 107.753 164.6 108.353 164C108.953 163.4 109.686 163.1 110.553 163.1C111.386 163.1 112.086 163.4 112.653 164C113.253 164.6 113.553 165.333 113.553 166.2C113.553 167.067 113.253 167.8 112.653 168.4C112.086 169 111.386 169.3 110.553 169.3Z" fill="url(#paint8_linear_2597_4525)"/>
<defs>
<linearGradient id="paint0_linear_2597_4525" x1="111.075" y1="-0.0122683" x2="94.1922" y2="154.048" gradientUnits="userSpaceOnUse">
<stop stop-color="#D7E0EE"/>
<stop offset="0.0001" stop-color="#E0E7F3"/>
<stop offset="0.481789" stop-color="#E4E7FB"/>
<stop offset="0.844094" stop-color="#FAFAFA" stop-opacity="0"/>
</linearGradient>
<linearGradient id="paint1_linear_2597_4525" x1="110.086" y1="111.796" x2="110.086" y2="191.047" gradientUnits="userSpaceOnUse">
<stop stop-color="#C6CEEB"/>
<stop offset="0.526042" stop-color="#DBDFF8"/>
<stop offset="1" stop-color="#F9FAFC" stop-opacity="0"/>
</linearGradient>
<linearGradient id="paint2_linear_2597_4525" x1="112.947" y1="190.782" x2="113" y2="213" gradientUnits="userSpaceOnUse">
<stop stop-color="#EBEAEA"/>
<stop offset="1" stop-color="#F9FAFC" stop-opacity="0"/>
</linearGradient>
<linearGradient id="paint3_linear_2597_4525" x1="65.5882" y1="43.3089" x2="56.9472" y2="75.9711" gradientUnits="userSpaceOnUse">
<stop stop-color="#DFE2EB"/>
<stop offset="1" stop-color="#FAFAFA"/>
</linearGradient>
<linearGradient id="paint4_linear_2597_4525" x1="111.076" y1="-0.0122681" x2="94.1932" y2="154.048" gradientUnits="userSpaceOnUse">
<stop stop-color="#E4E7FB"/>
<stop offset="0.0001" stop-color="#E0E7F3"/>
<stop offset="0.481789" stop-color="#DAE9FF"/>
<stop offset="0.844094" stop-color="#FAFAFA" stop-opacity="0"/>
</linearGradient>
<linearGradient id="paint5_linear_2597_4525" x1="110.086" y1="111.796" x2="110.086" y2="191.047" gradientUnits="userSpaceOnUse">
<stop stop-color="#E3E6F2"/>
<stop offset="0.526042" stop-color="#EAEBEF"/>
<stop offset="1" stop-color="#F9FAFC" stop-opacity="0"/>
</linearGradient>
<linearGradient id="paint6_linear_2597_4525" x1="65.5872" y1="43.3087" x2="56.9462" y2="75.9709" gradientUnits="userSpaceOnUse">
<stop stop-color="#DFE2EB"/>
<stop offset="1" stop-color="#FAFAFA"/>
</linearGradient>
<linearGradient id="paint7_linear_2597_4525" x1="90.5" y1="102" x2="145.5" y2="202" gradientUnits="userSpaceOnUse">
<stop offset="0.0624861" stop-color="#FFC5C5"/>
<stop offset="1" stop-color="#FF2727"/>
</linearGradient>
<linearGradient id="paint8_linear_2597_4525" x1="114" y1="134" x2="123" y2="157.5" gradientUnits="userSpaceOnUse">
<stop stop-color="#FFABAB"/>
<stop offset="1" stop-color="#ED2A2A"/>
</linearGradient>
</defs>
</svg>
